HIERARCHY
ROOT hip
{
	OFFSET 0.000000 0.000000 0.000000 
	CHANNELS 6 Xposition Yposition Zposition Xrotation Zrotation Yrotation
	JOINT abdomen
	{
		OFFSET 0.000000 3.402643 0.000000 
		CHANNELS 3 Xrotation Zrotation Yrotation
		JOINT chest
		{
			OFFSET 0.000000 8.438565 -0.680529 
			CHANNELS 3 Xrotation Zrotation Yrotation
			JOINT neck
			{
				OFFSET 0.000000 10.207942 -0.272212 
				CHANNELS 3 Xrotation Zrotation Yrotation
				JOINT head
				{
					OFFSET 0.000000 3.130431 0.000000 
					CHANNELS 3 Xrotation Zrotation Yrotation
					End Site
					{
						OFFSET 0.000000 3.130435 0.000000 
					}
				}
			}
			JOINT lCollar
			{
				OFFSET 3.470700 6.669187 -0.816635 
				CHANNELS 3 Yrotation Zrotation Xrotation
				JOINT lShldr
				{
					OFFSET 3.198488 0.000000 0.000000 
					CHANNELS 3 Zrotation Yrotation Xrotation
					JOINT lForeArm
					{
						OFFSET 10.139888 0.000000 0.000000 
						CHANNELS 3 Yrotation Zrotation Xrotation
						JOINT lHand
						{
							OFFSET 8.370511 0.000000 0.000000 
							CHANNELS 3 Zrotation Yrotation Xrotation
							End Site
							{
								OFFSET 4.083176 0.000000 0.000000 
							}
						}
					}
				}
			}
			JOINT rCollar
			{
				OFFSET -3.470700 6.669187 -0.816635 
				CHANNELS 3 Yrotation Zrotation Xrotation
				JOINT rShldr
				{
					OFFSET -3.198488 0.000000 0.000000 
					CHANNELS 3 Zrotation Yrotation Xrotation
					JOINT rForeArm
					{
						OFFSET -10.139888 0.000000 0.000000 
						CHANNELS 3 Yrotation Zrotation Xrotation
						JOINT rHand
						{
							OFFSET -8.370511 0.000000 0.000000 
							CHANNELS 3 Zrotation Yrotation Xrotation
							End Site
							{
								OFFSET -4.083176 0.000000 0.000000 
							}
						}
					}
				}
			}
		}
	}
	JOINT lThigh
	{
		OFFSET 5.308129 -1.633274 1.361059 
		CHANNELS 3 Xrotation Zrotation Yrotation
		JOINT lShin
		{
			OFFSET -2.041588 -20.007561 0.000000 
			CHANNELS 3 Xrotation Zrotation Yrotation
			JOINT lFoot
			{
				OFFSET 0.000000 -19.190928 -1.224953 
				CHANNELS 3 Xrotation Yrotation Zrotation
				End Site
				{
					OFFSET 0.000000 -2.449906 4.627600 
				}
			}
		}
	}
	JOINT rThigh
	{
		OFFSET -5.308129 -1.633274 1.361059 
		CHANNELS 3 Xrotation Zrotation Yrotation
		JOINT rShin
		{
			OFFSET 2.041588 -20.007561 0.000000 
			CHANNELS 3 Xrotation Zrotation Yrotation
			JOINT rFoot
			{
				OFFSET 0.000000 -19.190928 -1.224953 
				CHANNELS 3 Xrotation Yrotation Zrotation
				End Site
				{
					OFFSET 0.000000 -2.449906 4.627600 
				}
			}
		}
	}
}
MOTION
Frames: 9
Frame Time: 0.033333
-6.201275 50.261185 18.272715 -46.816406 -2.177734 167.158203 60.915794 -8.844201 -22.205145 -20.703125 7.949218 -7.469352 51.063168 8.107644 2.471410 -92.773438 -6.376952 41.629776 2.000000 -2.000000 0.000000 -52.001953 -31.152342 -40.190598 -63.224876 -1.331085 -2.412906 -52.707336 63.481861 -73.985664 -2.000000 2.000000 0.000000 76.054688 10.966796 22.921782 108.678169 -1.107201 -3.043305 31.794964 -78.269379 -43.852589 -72.844597 26.341793 18.265120 33.901184 -4.318199 -2.997290 0.112018 3.110733 -3.502140 -61.200359 -9.316210 -26.928478 20.894232 4.793839 1.925317 4.533265 -8.049228 14.500532 
-6.223540 50.135136 18.319580 -48.212887 -1.894531 167.138351 61.113842 -8.985560 -22.217293 -20.703125 7.949218 -7.293571 51.063168 8.107644 2.471410 -92.333984 -6.064452 41.063427 2.000000 -2.000000 0.000000 -50.273441 -32.333984 -40.458984 -63.752781 -1.312720 -2.433532 -54.938202 64.315781 -75.815582 -2.000000 2.000000 0.000000 76.425781 11.142578 22.138674 109.029732 -1.107201 -3.043305 30.691196 -78.193596 -42.753563 -74.926361 26.861088 17.323351 34.624878 -4.274991 -3.034172 -0.257116 3.351018 -3.728793 -62.962124 -9.311866 -26.919674 21.938749 4.754784 1.848660 3.989196 -7.903409 14.526306 
-6.245804 50.001213 18.366446 -49.609375 -1.718750 167.040726 61.501537 -9.105023 -22.259733 -20.712893 7.773438 -7.324219 51.063168 8.107644 2.471410 -91.923828 -5.742187 40.506836 2.000000 -2.000000 0.000000 -48.544922 -33.583981 -40.591335 -64.278992 -1.144150 -2.394445 -56.008049 64.411819 -76.444374 -2.000000 2.000000 0.000000 76.748047 11.455077 21.017567 109.029716 -1.116950 -3.043869 31.275877 -78.108131 -43.383915 -77.087349 27.107468 16.341013 35.484238 -4.328242 -3.149458 -0.684725 3.369096 -3.861076 -64.412560 -9.061562 -27.040009 23.022644 4.725410 1.941844 3.494862 -8.238502 14.919898 
-6.308651 49.867279 18.433332 -49.619137 -1.835938 167.001633 61.474293 -9.205653 -21.801403 -20.712893 7.773438 -7.148438 51.063168 8.107644 2.471410 -91.406250 -5.839843 39.930649 2.000000 -2.000000 0.000000 -49.277344 -34.980469 -40.464581 -64.280937 -1.304671 -2.463335 -53.233810 65.948685 -73.300713 -2.000000 2.000000 0.000000 76.386719 11.347656 20.439451 109.205490 -1.126699 -3.044433 29.245426 -78.026154 -40.981285 -77.087357 27.107464 16.341015 36.027771 -4.308493 -3.178867 -0.713750 3.421383 -4.259415 -65.258659 -9.333114 -26.814486 23.889641 4.709612 1.805932 2.964615 -8.256303 15.037025 
-6.371496 49.725468 18.500099 -49.619137 -1.835938 166.825851 61.479523 -9.290545 -21.651350 -20.712893 7.773438 -6.972657 51.063168 8.107644 2.471410 -91.044922 -5.917969 39.354958 2.000000 -2.000000 0.000000 -49.853516 -36.337894 -40.351566 -64.278488 -1.113769 -2.376656 -51.743866 67.161598 -71.437538 -2.000000 2.000000 0.000000 76.201172 11.152344 19.648438 109.006073 -1.222111 -3.255082 29.110037 -77.683167 -40.478874 -77.480141 27.138535 16.202093 36.355518 -4.171376 -3.182779 -1.100492 3.115781 -3.963762 -65.796089 -9.694162 -26.744177 25.121477 4.647278 2.263655 2.411654 -8.557669 15.022141 
-6.480676 49.575794 18.553328 -48.759766 -2.343750 166.796478 61.261551 -9.241357 -21.178871 -20.712891 7.607422 -6.649097 51.063168 8.107644 2.471410 -91.074219 -6.035156 38.613285 2.000000 -2.000000 0.000000 -48.398434 -36.826176 -39.927727 -64.104874 -1.313854 -2.453022 -47.365871 66.390953 -69.040962 -2.000000 2.000000 0.000000 75.810547 11.123049 18.896482 108.678452 -1.096887 -3.052487 26.608437 -77.361946 -38.017685 -76.117432 27.017155 16.854578 36.563343 -4.167830 -3.170017 -1.247236 3.544209 -4.318667 -65.818886 -10.126100 -26.004616 26.179111 4.589335 2.172490 1.885763 -8.385748 14.831138 
-6.589856 49.426109 18.606674 -47.900394 -2.724609 166.630859 61.045990 -9.268804 -20.551332 -20.546875 7.421875 -6.298828 51.063168 8.107644 2.471410 -90.937500 -6.210938 37.822269 2.000000 -2.000000 0.000000 -46.894531 -37.490231 -39.365231 -63.933079 -1.223382 -2.242951 -44.464760 65.309273 -67.821136 -2.000000 2.000000 0.000000 75.429688 11.230468 18.466797 108.502686 -1.087138 -3.051922 24.353754 -77.076813 -35.400337 -75.126389 26.874609 17.199976 36.908642 -4.259947 -3.216992 -1.275596 3.662795 -4.681040 -65.650307 -10.515205 -25.247858 27.068962 4.569972 2.396230 1.555133 -8.265565 15.074673 
-6.739664 49.307938 18.619518 -46.347656 -3.281250 166.356873 60.795166 -9.137472 -19.904202 -20.546875 7.421875 -5.771485 51.063168 8.107644 2.471410 -90.859375 -6.787108 37.197269 2.000000 -2.000000 0.000000 -46.992188 -37.021488 -38.716816 -63.926643 -1.122951 -2.366343 -40.802357 65.507683 -65.603668 -2.000000 2.000000 0.000000 74.619141 11.259767 18.447268 107.096489 -1.028642 -3.048540 26.900576 -75.890358 -37.477879 -72.831200 26.337481 18.453447 36.741901 -4.158218 -3.161975 -1.990122 3.904876 -5.035687 -64.968056 -11.111592 -24.325159 27.940481 4.500590 2.461869 1.158808 -8.450302 14.757355 
-6.889459 49.174004 18.632362 -44.794922 -4.003906 166.346970 60.390102 -9.105773 -19.414501 -20.380861 7.246094 -5.263672 51.063168 8.107644 2.471410 -90.771484 -7.216797 36.455082 2.000000 -2.000000 0.000000 -47.363281 -36.894531 -38.121098 -63.926643 -1.122951 -2.366343 -37.205227 65.306709 -63.467861 -2.000000 2.000000 0.000000 74.199219 11.416016 18.566389 105.690842 -0.978768 -3.065211 27.901348 -74.870529 -37.827637 -70.682304 26.092707 19.356817 36.562534 -4.162046 -3.207013 -1.776186 3.965276 -5.047081 -64.263885 -11.706882 -23.372747 28.643517 4.461543 2.364190 1.007131 -8.230061 14.667222 
